<?xml version="1.0" encoding="utf-8"?>
<!-- Generator: Adobe Illustrator 22.1.0, SVG Export Plug-In . SVG Version: 6.00 Build 0)  -->
<svg version="1.1" id="Layer_1" xmlns="http://www.w3.org/2000/svg" xmlns:xlink="http://www.w3.org/1999/xlink" x="0px" y="0px"
	 viewBox="0 0 728 90" style="enable-background:new 0 0 728 90;" xml:space="preserve">
<g>
	<path d="M485.2,12.1c21.7,0,43.3,0,65,0c0,21.6,0,43.2,0,64.9c-4.4,0-8.7,0-13.1,0c5.1-16.3,2.6-31.1-9-43.7
		c-11.6-12.6-26.2-16.1-42.8-12.5c0-0.1-0.1-0.2-0.1-0.3C485.2,17.7,485.2,15,485.2,12.1z"/>
	<path d="M422.5,46.5c0-5.3,0-10.5,0-15.8c0-0.8,0.2-1.1,1.1-1.1c6,0,12.1,0,18.1,0.1c3.5,0.1,6.9,0.7,10.1,2.1
		c5.7,2.6,8.5,7.2,8.8,13.3c0.2,3-0.1,5.9-1.3,8.7c-2.1,4.8-5.9,7.4-10.8,8.7c-2.8,0.8-5.7,1.1-8.7,1.1c-5.4,0-10.9,0-16.3,0
		c-0.9,0-1.1-0.3-1.1-1.1C422.5,57.2,422.5,51.9,422.5,46.5z M432,46.6c0,2.8,0,5.6,0,8.4c0,1.2,0,1.2,1.3,1.2c1.9,0,3.8,0.1,5.7,0
		c1.6-0.1,3.2-0.2,4.8-0.5c3.2-0.6,5.6-2.3,6.4-5.6c0.4-1.5,0.5-3.1,0.4-4.6c-0.1-3.7-2.1-6.5-5.6-7.5c-1.4-0.4-2.9-0.7-4.3-0.8
		c-2.6-0.1-5.3,0-7.9-0.1c-0.7,0-0.9,0.2-0.9,0.9C432,40.9,432,43.7,432,46.6z"/>
	<path d="M262.4,49.9c0-6.7,0-13.4,0-20.2c3,0,5.8,0,8.8,0c0,11.3,0,22.5,0,33.9c-0.8,0-1.6,0-2.3,0c-1.3,0-2.6,0-3.9,0
		c-0.6,0-1-0.2-1.5-0.6c-6.4-6.6-12.9-13.2-19.4-19.8c-0.3-0.3-0.5-0.7-0.7-1c-0.1,0.1-0.2,0.1-0.3,0.2c0,7,0,14,0,21.1
		c-0.3,0-0.6,0.1-0.8,0.1c-2.5,0-4.9,0-7.4,0c-0.6,0-0.8-0.2-0.8-0.8c0-10.8,0-21.6,0-32.4c0-0.2,0-0.4,0.1-0.7c0.3,0,0.6,0,0.9,0
		c2.1,0,4.3,0,6.4,0c0.7,0,1.1,0.2,1.5,0.7c6.1,6.4,12.3,12.7,18.5,19.1c0.2,0.2,0.3,0.5,0.4,0.8C262.1,50.1,262.2,50,262.4,49.9z"
		/>
	<path d="M400.2,43.2c0,2.2,0,4.2,0,6.3c0,0.2-0.3,0.4-0.4,0.4c-0.3,0.1-0.6,0-0.8,0c-5.5,0-11,0-16.5,0c-0.8,0-1.2,0.2-1.1,1.1
		c0.1,1.5,0.1,2.9,0,4.4c0,0.8,0.2,1,1,1c6.7,0,13.5,0,20.2,0c0.4,0,0.7,0,1.2,0c0,0.6,0,1.1,0,1.6c0,1.6-0.1,3.1,0,4.7
		c0,0.8-0.3,1-1,1c-9.4,0-18.8,0-28.2,0c-0.7,0-1.4,0-2,0c-0.6,0-0.7-0.2-0.7-0.7c0-0.9,0-1.8,0-2.7c0-9.8,0-19.6,0-29.4
		c0-0.4,0-0.7,0-1.1c10.6,0,21.1,0,31.7,0c0,1,0,2,0,3c0,1.1,0,2.3,0,3.4c0,0.7-0.2,1-0.9,1c-5.6,0-11.2,0-16.7,0
		c-1.2,0-2.5,0-3.7,0c-0.7,0-0.9,0.2-0.9,0.9c0,1.5,0,2.9,0,4.4c0,0.7,0.2,0.9,0.9,0.9c5.6,0,11.2,0,16.8,0
		C399.4,43.2,399.7,43.2,400.2,43.2z"/>
	<path d="M178.2,29.7c3.1,0,6.3,0,9.5,0c0,0.4,0,0.7,0,1c0,5.9,0,11.8,0,17.7c0,0.8,0.1,1.7,0.2,2.5c0.6,3.1,2.7,4.8,5.7,5.4
		c2.4,0.5,4.9,0.5,7.3-0.2c2.9-0.9,4.7-2.9,4.8-6c0.1-4,0.1-8.1,0.1-12.1c0-2.5,0-5,0-7.5c0-0.4,0-0.8,0.6-0.8c2.8,0,5.6,0,8.4,0
		c0.1,0,0.2,0,0.4,0.1c0,0.3,0,0.6,0,0.9c0,6,0,12,0,17.9c0,2.7-0.4,5.3-1.6,7.8c-1.9,3.8-5.1,5.9-9,6.9c-6,1.5-12.1,1.5-17.9-0.7
		c-5.3-2.1-8.2-6.2-8.4-11.8c-0.3-6.9-0.2-13.8-0.2-20.7C178.1,30,178.1,29.9,178.2,29.7z"/>
	<path d="M354.6,37.2c-2.4,0-4.7,0-6.9,0c-1.5,0-3,0-4.6,0c-0.8,0-1,0.2-1,1c0,8.1,0,16.1,0,24.2c0,0.2,0.1,0.5,0,0.7
		c-0.1,0.2-0.3,0.5-0.5,0.5c-3,0-5.9,0-9,0c0-0.4,0-0.8,0-1.1c0-8.1,0-16.2,0-24.3c0-0.8-0.2-1.1-1-1.1c-3.5,0-6.9,0-10.4,0
		c-0.3,0-0.7,0-1.1,0c0-2.5,0-5,0-7.5c11.5,0,23,0,34.5,0C354.6,32.2,354.6,34.6,354.6,37.2z"/>
	<path d="M293,29.7c3.2,0,6.4,0,9.6,0c0,11.3,0,22.5,0,33.8c-3.2,0-6.4,0-9.6,0C293,52.3,293,41,293,29.7z"/>
	<path d="M492.5,72.1c-1.2-2.3-2.4-4.5-3.6-6.6c2.2-1.5,4.4-2.9,6.6-4.4c1.5,1.9,3.1,4,4.8,6.1c1-0.8,1.8-1.5,2.8-2.3
		c-1.7-2-3.4-4-5-5.9c1.5-1.6,3-3.2,4.6-4.9c1.9,1.7,3.8,3.4,5.8,5.3c0.8-1,1.6-2.1,2.6-3.2c-2.1-1.7-4-3.4-6-5
		c0.9-1.5,1.9-3,2.9-4.7c2.1,1.4,4.3,2.7,6.6,4.2c0.5-1.2,1.1-2.3,1.6-3.5c0.1-0.1-0.2-0.5-0.4-0.6c-1.9-1.1-3.7-2.1-5.6-3.2
		c-0.5-0.3-0.7-0.5-0.5-1.2c0.4-1,0.6-2,1-3.2c2.3,1,4.6,2,7.2,3.2c0.1-1.5,0.2-2.9,0.3-4.4c0-0.2-0.3-0.4-0.6-0.5
		c-1.8-0.7-3.6-1.4-5.5-2c-0.8-0.2-1.1-0.6-1-1.4c0-0.3,0-0.6,0-1.1c2.3,0.7,4.5,1.3,6.8,2c-0.1-1.6-0.6-3-1.3-4.3
		c-0.1-0.1-0.4-0.2-0.6-0.3c-1.5-0.3-3-0.7-4.5-0.9c-1.1-0.1-1.4-0.7-1.6-1.8c1.8,0.2,3.5,0.5,5.3,0.7c-0.1-0.3-0.2-0.5-0.3-0.6
		c-0.2-0.3-0.4-0.5-0.6-0.8c-1.3-1.7-2.9-2.7-5.1-2.4c-1.4,0.2-1.4,0-2.4-1.1c0.9,0,1.8,0,2.6,0c0-0.1,0-0.2,0.1-0.3
		c-2-1.2-4.2-1.8-6.5-2.2c9,0.7,14.8,7.4,15.8,14.2c0.6,4.2-0.3,8.2-1.8,12.1c-2.6,6.5-6.9,11.9-11.9,16.7
		c-5.3,5.2-11.6,9-18.6,11.5c-0.2,0.1-0.4,0.1-0.6,0.2c0,0-0.1,0-0.3,0c0-0.3,0-0.6,0-0.8c0-2.1,0-4.3,0-6.4c0-1.4,0-1.4,1.4-1.9
		c0.1,0.2,0.3,0.5,0.4,0.8c0.9,1.7,1.9,3.5,2.7,5.2c0.3,0.6,0.6,0.7,1.1,0.4C491.4,72.6,491.9,72.4,492.5,72.1z"/>
	<path d="M504.3,66c1.8-1.7,3.7-3.5,5.5-5.2c1.4,1.3,3.1,2.8,4.8,4.5c0.7-0.9,1.6-2,2.4-3.1c0.1-0.1-0.1-0.6-0.3-0.8
		c-1.3-1.5-2.7-3-4.1-4.6c0.9-1.4,2.1-3.2,3.3-5.1c1.6,1.3,3.3,2.6,5.1,4.1c0.6-1.4,1.2-2.7,1.8-4c0.1-0.1-0.2-0.4-0.4-0.6
		c-1.4-1-2.7-2.1-4.1-3.1c-0.4-0.3-0.5-0.5-0.3-1c0.5-1.3,0.9-2.5,1.3-4c1.7,1,3.3,2.1,5.2,3.2c0.1-1.2,0.2-2.3,0.4-3.3
		c0.3-1.5-0.3-2.4-1.7-3c-1-0.4-1.8-1-2.8-1.4c-0.4-0.2-0.7-0.4-0.6-1c0-0.6,0-1.2,0-2c1.5,0.7,3,1.4,4.7,2.1
		c-0.3-2-0.9-3.7-1.8-5.4c-0.1-0.2-0.3-0.3-0.6-0.3c-0.7-0.3-1.5-0.6-2.2-0.8c-1.3-0.2-2-1-2.3-2.4c1.1,0.3,2.2,0.6,3.3,0.9
		c-0.1-0.3-0.2-0.5-0.3-0.6c-1.3-1.6-2.9-3-4.7-4.1c-0.2-0.1-0.5-0.2-0.8-0.2c-0.9,0-1.6-0.4-2.1-1.2c2.8,0.8,5.1,2.2,7,4.3
		c4.2,4.7,5.9,10.2,5.2,16.5c-0.7,6.2-3.3,11.6-6.8,16.6c-4.3,6.2-9.7,11.3-15.9,15.6c-0.3,0.2-0.6,0.3-0.9,0.3c-1.8,0-3.7,0-5.5,0
		c-0.3,0-0.7-0.2-0.8-0.4c-0.7-1-1.3-2.1-1.9-3.1c2.7-1.7,5.3-3.3,7.9-5.1c1.3,1.7,2.7,3.4,4.1,5.3c1-0.8,2-1.6,3.1-2.5
		C507.1,69.5,505.7,67.8,504.3,66z"/>
	<path d="M486,64.9c0.6-0.3,1.3-0.6,2-1c-0.2-0.5-0.4-1-0.7-1.4c-0.5-1-0.9-2-1.5-2.9c-0.6-1-0.6-2-0.6-3.1c0-0.2,0.1-0.4,0.3-0.5
		c1.3-0.9,2.6-1.7,4-2.6c1.6,2,3.2,4.1,4.9,6.3c0.8-0.7,1.6-1.3,2.4-2.1c-1.8-2-3.5-4-5.2-5.8c1.2-1.2,2.4-2.4,3.7-3.6
		c1.8,1.5,3.8,3.1,5.9,4.8c0.7-0.9,1.4-1.8,2.2-2.8c-2.2-1.5-4.3-3-6.4-4.5c0.7-1.1,1.5-2.3,2.3-3.6c2.2,1.1,4.5,2.3,6.9,3.5
		c0.5-1.1,1-2.1,1.5-3.3c-2.4-1-4.7-2-7-3c0.3-0.8,0.6-1.7,0.9-2.8c2.3,0.6,4.7,1.3,7.1,2c0.2-1.1,0.3-2.2,0.4-3.3
		c0-0.2-0.3-0.5-0.5-0.6c-1.8-0.4-3.6-0.7-5.5-1c-0.3-0.1-0.6-0.1-1-0.2c0-0.5,0.1-1,0.2-1.7c2.2,0.3,4.4,0.6,6.9,0.9
		c-0.3-1.1-0.5-2.2-0.9-3.2c-0.1-0.2-0.5-0.3-0.7-0.3c-1.6-0.1-3.2-0.2-4.7-0.2c-1.1,0-1.1,0-1.3-1.3c1.9,0,3.8,0,5.7,0
		c-0.4-1.8-1.7-2.9-3.3-2.8c-1,0.1-2,0.2-2.9,0.3c-0.9,0.1-0.9,0.1-1.5-0.8c1.4-0.2,2.7-0.5,4.1-0.7c-0.7-1-3.1-2-4.2-1.7
		c-0.5,0.1-1,0.2-1.5,0.4c-0.6,0.3-1.1,0.2-1.7-0.3c0.6-0.2,1.2-0.4,1.7-0.7c0-0.1,0-0.2-0.1-0.3c-2,0-4.1,0-6.1,0
		c5.2-0.7,10-0.2,14,3.6c3.2,3.1,4.3,6.9,3.9,11.2c-0.7,7.9-4.7,14.1-9.9,19.7c-4,4.2-8.6,7.6-13.8,10.2c-0.3,0.1-0.6,0.2-0.9,0.4
		c0-0.8,0-1.4,0-2.2C485.5,64.1,485.7,64.5,486,64.9z"/>
	<path d="M509.7,72.8c2-1.9,4-3.8,6-5.8c0.9,1.1,2.1,2.5,3.4,4c1-1.2,1.9-2.3,2.8-3.5c0.1-0.1-0.1-0.5-0.2-0.7
		c-1-1.1-1.9-2.2-2.9-3.3c-0.3-0.3-0.4-0.5-0.1-0.9c1.2-1.8,2.4-3.6,3.7-5.6c1.2,1.3,2.3,2.6,3.5,3.9c0.2-0.1,0.3-0.1,0.5-0.2
		c0.6-1.4,1.2-2.8,1.8-4.2c0.1-0.1-0.2-0.5-0.3-0.6c-1-0.9-2-1.9-2.9-2.8c-0.2-0.2-0.4-0.6-0.4-0.8c0.5-1.6,1-3.1,1.6-4.8
		c1.2,1,2.3,1.9,3.7,3c0.1-1.4,0.1-2.6,0.3-3.8c0.2-1.7-0.2-3-1.8-3.7c-1.8-0.8-1.9-2.4-1.8-4.2c0.9,0.6,1.8,1.1,2.8,1.7
		c-0.1-0.4-0.1-0.6-0.1-0.8c-0.6-1.5-1.2-3-1.8-4.5c-0.4-1-1.2-1.7-2.2-2.3c-0.7-0.4-1.1-1.4-1.6-2.1c0.1-0.1,0.1-0.2,0.2-0.2
		c0.4,0.2,0.9,0.4,1.1,0.7c3.1,3.4,4.9,7.5,5.5,12c0.8,6.6-0.9,12.6-4,18.3c-3.1,5.6-7.1,10.5-11.8,14.8c-0.8,0.7-1.4,0.6-2-0.2
		C511.6,75.3,510.6,74,509.7,72.8z"/>
	<path d="M499.2,38.7c-2.6-0.7-5.1-1.4-7.6-2.1c0.1-1.3,0.3-1.6,1.6-1.4c2.1,0.2,4.2,0.6,6.3,0.9c0.5,0.1,0.7,0,0.8-0.5
		c0.1-0.7,0.3-1.5,0.4-2.4c-2.9-0.1-5.6-0.2-8.3-0.3c-0.2-0.8,0.2-1.2,1-1.2c2.2,0,4.4-0.1,6.7-0.1c0.6,0,0.8-0.1,0.7-0.7
		c-0.1-1.8-0.2-2-2-1.8c-2,0.2-3.9,0.4-5.9,0.7c-0.7,0.1-0.8-0.2-0.7-0.9c2.5-0.4,5-0.8,7.7-1.3c-0.4-0.7-0.8-1.3-1.3-1.8
		c-0.1-0.1-0.5-0.1-0.7-0.1c-2,0.5-3.9,1-5.9,1.6c-0.5,0.2-0.9,0.1-1-0.6c2.1-0.6,4.2-1.3,6.3-1.9c-0.7-1.1-2-1.7-3.2-1.2
		c-1.3,0.5-2.6,1.1-3.9,1.6c-0.3,0.1-0.6,0.1-0.9,0.1c0-0.1,0-0.2-0.1-0.3c0.7-0.4,1.4-0.8,2.2-1.1c0.7-0.3,1.5-0.6,2.2-1.1
		c-1.4-0.4-2.8-1.1-4.3-0.1c-0.5,0.4-1.1,0.7-1.6,1.1c-0.3,0.1-0.6,0.2-0.9,0.3c0-0.1-0.1-0.2-0.1-0.3c0.6-0.4,1.1-0.9,1.7-1.3
		c0-0.1,0-0.1,0-0.2c-1,0.1-2,0.2-3.2,0.3c0.2-0.1,0.3-0.2,0.4-0.3c3.2-0.6,6.4-0.8,9.6,0.5c4.9,2,6.6,6.2,6.1,10.7
		c-0.7,6.1-3.9,10.9-8,15.2c-2.3,2.5-5,4.6-8,6.4c0-2.3,0-4.6,0-7c1.1,1.4,2.1,2.7,3.2,4.1c0.6-0.5,1.2-1,1.9-1.5
		c-1.8-1.9-3.4-3.7-5-5.4c0.8-0.8,1.5-1.6,2.4-2.5c2,1.4,4.1,2.9,6.2,4.4c0.6-0.7,1.1-1.3,1.8-2.1c-2.3-1.3-4.5-2.6-6.7-3.9
		c0.4-0.7,0.8-1.3,1.2-1.9c0.1-0.2,0.6-0.3,0.8-0.2c2,0.7,3.9,1.4,5.9,2.1c1,0.4,1,0.4,1.6-0.6c0.2-0.4,0.4-0.8,0.5-1.1
		C499,39.1,499.1,39,499.2,38.7z"/>
	<path d="M532.6,43.2c-0.5-2.8-1.9-5.1-3.4-7.4c1.7,1.9,3,4,3.8,6.4c2.2,6,1.8,12.1,0,18.2c-1.8,6.2-5.1,11.5-9.2,16.4
		c-0.1,0.2-0.4,0.4-0.6,0.4c-2.4,0-4.8,0-7.3,0c1.5-1.6,2.8-3.1,4.3-4.6c1,1.3,2,2.6,3.1,4c1-1.2,1.9-2.4,2.7-3.5
		c0.1-0.1,0-0.5-0.1-0.7c-0.7-1-1.5-2-2.2-3c-0.2-0.2-0.3-0.7-0.1-0.9c1.3-2,2.6-4,4-6.1c0.9,1.1,1.8,2.3,2.8,3.6
		c0.7-1.7,1.3-3.1,1.8-4.6c0.1-0.2-0.1-0.5-0.3-0.8c-0.6-0.9-1.3-1.7-1.9-2.6c-0.2-0.3-0.3-0.7-0.2-1c0.4-1.6,0.9-3.2,1.4-5
		c0.8,0.9,1.6,1.7,2.5,2.7c0.1-1,0.3-1.9,0.3-2.7c0.1-0.7-0.1-1.5,0-2.2c0.2-1.5-0.4-2.6-1.6-3.5c-0.6-0.4-0.9-0.9-0.9-1.6
		c0-0.8-0.2-1.6-0.3-2.6C531.8,42.6,532.2,42.9,532.6,43.2z"/>
	<path d="M535.2,46c1.8,3.6,2.3,7.4,1.8,11.3c-0.8,7-3.4,13.3-7.2,19.1c-0.2,0.2-0.4,0.5-0.6,0.9c-0.7-1.1-1.3-2-1.8-3
		c-0.1-0.1,0-0.4,0.1-0.5c1.3-2,2.6-4.1,3.9-6.2c0.4,0.7,0.9,1.4,1.5,2.4c0.7-1.8,1.3-3.3,1.8-4.9c0.1-0.4-0.3-1-0.7-1.5
		c-0.5-0.7-0.5-1.3-0.2-2.1c0.5-1.5,0.9-3.1,1.3-4.7c0.3,0.4,0.7,0.7,1.2,1.3c0.2-1.5,0.4-2.8,0.5-4c0.1-0.8,0.1-1.5,0-2.3
		c0-0.3-0.1-0.8-0.3-1C535.2,49.4,535.4,47.6,535.2,46z"/>
	<path d="M490.5,30.1c-1.7,0.4-3.4,0.9-5.1,1.3c-0.1-0.1-0.1-0.1-0.2-0.2c0.2-0.2,0.4-0.4,0.6-0.5c1.2-0.4,2.5-0.8,3.8-1.2
		c0.3-0.1,0.5-0.2,0.8-0.2c-0.1-1.3-0.3-1.4-1.5-1c-1.2,0.5-2.4,1-3.6,1.5c-0.1-0.1-0.1-0.1-0.2-0.2c0.2-0.2,0.4-0.4,0.6-0.6
		c1.2-0.6,2.3-1.1,3.5-1.7c-0.5-1.1-0.8-1.2-1.8-0.7c-0.7,0.4-1.4,0.8-2.2,1.1c0.4-1,1.6-1.2,2.3-2c-0.7-0.4-1.4-1-2.3-0.5
		c0-0.3,0-0.5,0-0.8c2.9,0.1,5.4,2.5,6,5.3c0.3,1.8,0.1,3.5-0.4,5.2c-1.1,3.2-3,5.8-5.5,8.2c0-0.8,0-1.6,0-2.3
		c1.2,0.4,1.3,0.4,2-0.9c-0.2-0.1-0.5-0.3-0.7-0.4c-1.5-0.8-1.5-0.8-1.2-2.7c0.7,0.2,1.5,0.4,2.2,0.6c1.5,0.4,1.5,0.4,2.1-1.3
		c-1.4-0.2-2.8-0.5-4.2-0.7c-0.2-0.6,0-0.9,0.7-0.9c1,0,2.1,0,3.1,0.1c1,0.1,1.3-0.3,1.4-1.2c0-0.2,0-0.3,0-0.6c-0.8,0-1.6,0-2.3,0
		c-0.8,0-1.6,0.2-2.4,0.2c-0.2,0-0.4-0.2-0.6-0.2c0.2-0.2,0.3-0.4,0.5-0.4c1.3-0.2,2.6-0.5,3.9-0.7
		C490.9,31.7,491.1,31.5,490.5,30.1z"/>
	<path d="M538.5,57.7c0,6.2-1.6,11.7-4,17.1c-0.1,0.1-0.1,0.3-0.2,0.4c-1,2.1-1.1,2.2-3.6,1.8c1-1.8,2.1-3.6,3.1-5.5
		c0.3,0.5,0.5,0.9,0.9,1.5c0.6-1.8,1.2-3.4,1.7-5c0-0.1,0-0.2-0.1-0.3c-0.6-1-0.3-1.9,0.1-2.9c0.4-1.1,0.6-2.3,0.9-3.4
		c0.1-0.5,0.2-0.9,0.6-1.4C538.4,59.6,538.3,58.7,538.5,57.7z"/>
	<path d="M492.2,77c-2.4,0-4.6,0-6.8,0c0,0,0-0.1,0-0.1c1.8-0.7,3.6-1.4,5.6-2.1C491.3,75.5,491.7,76.2,492.2,77z"/>
	<path d="M534.6,77c0.3-0.6,0.6-1.2,0.9-1.8c0.2,0.1,0.3,0.2,0.5,0.3c0.7-2.5,1.4-4.9,2.1-7.2c0.1,0,0.1,0,0.2,0
		c-0.5,2.2-1,4.4-1.6,6.6c-0.1,0.4-0.3,0.8-0.4,1.3C536.1,77,535.6,77.3,534.6,77z"/>
	<path d="M507.7,77.1c-1.3,0-2.4,0-3.6,0c0.9-0.7,1.6-1.2,2.4-1.8C506.9,75.8,507.3,76.4,507.7,77.1z"/>
</g>
</svg>
